<svg xmlns="http://www.w3.org/2000/svg" viewBox="0 0 800 520" width="800" height="520" role="img" aria-label="山野湖泊风景插画" preserveAspectRatio="xMidYMid slice">
  <title>Mountain scene</title>
  <defs>
    <linearGradient id="mtn-sky" x1="0" y1="0" x2="0" y2="1">
      <stop offset="0" stop-color="var(--scene-sky-1, #d6e8f6)"/>
      <stop offset=".58" stop-color="var(--scene-sky-2, #f7e7d4)"/>
      <stop offset="1" stop-color="var(--scene-sky-3, #ffe0b6)"/>
    </linearGradient>
    <linearGradient id="mtn-lake" x1="0" y1="0" x2="0" y2="1">
      <stop offset="0" stop-color="var(--scene-sea-1, #a9d3e0)"/>
      <stop offset="1" stop-color="var(--scene-sea-2, #5e9fb8)"/>
    </linearGradient>
    <radialGradient id="mtn-glow" cx="50%" cy="50%" r="50%">
      <stop offset="0" stop-color="#ffe6a6" stop-opacity=".9"/>
      <stop offset="1" stop-color="#ffe6a6" stop-opacity="0"/>
    </radialGradient>
  </defs>

  <rect width="800" height="520" fill="url(#mtn-sky)"/>
  <circle cx="596" cy="196" r="140" fill="url(#mtn-glow)"/>
  <circle cx="596" cy="196" r="50" fill="var(--scene-sun, #ffd684)"/>

  <g fill="#fffdf8" opacity=".85">
    <ellipse cx="150" cy="126" rx="68" ry="20"/>
    <ellipse cx="204" cy="118" rx="44" ry="16"/>
    <ellipse cx="470" cy="152" rx="46" ry="14"/>
  </g>
  <g stroke="#6f5a45" stroke-width="2.6" stroke-linecap="round" fill="none" opacity=".5">
    <path d="M330 120c7-8 14-8 21 0"/>
    <path d="M362 108c6-7 12-7 18 0"/>
  </g>

  <path d="M0 316l86-72 64 44 82-92 74 62 66-44 94 82 80-56 70 48 90-70 94 82v220H0z" fill="#a8bccb" opacity=".78"/>
  <path d="M0 372l74-66 68 44 84-82 74 62 78-48 84 74 84-56 86 48 84-56 84 64v214H0z" fill="#8299ad"/>
  <path d="M0 430l92-78 76 48 100-84 92 70 88-56 92 72 88-58 88 52 84-48v172H0z" fill="var(--scene-near, #5f7a72)"/>

  <g fill="#fffdf8" opacity=".92">
    <path d="M248 372l20-24 20 26-11-5-9 9-9-9z"/>
    <path d="M416 386l19-24 20 26-11-5-9 9-9-9z"/>
    <path d="M596 386l18-22 19 24-10-5-9 9-8-8z"/>
  </g>

  <rect y="436" width="800" height="66" fill="url(#mtn-lake)"/>
  <g stroke="#fffdf8" stroke-width="3" stroke-linecap="round" fill="none" opacity=".65">
    <path d="M120 460c24-8 48 8 72 0s48 8 72 0"/>
    <path d="M430 480c24-8 48 8 72 0"/>
    <path d="M240 490c20-7 40 7 60 0"/>
  </g>
  <path d="M330 452l14-22 3 22 12-17 5 19z" fill="#fffdf8" opacity=".9"/>

  <path d="M0 520v-34c120-12 260 6 400-2s280-16 400-8v44z" fill="var(--scene-sand, #7d9a63)"/>
  <g fill="#4f6b4d">
    <path d="M52 520l18-46 18 46z"/><path d="M92 520l15-38 15 38z"/>
    <path d="M132 520l20-52 20 52z"/><path d="M660 520l18-48 18 48z"/>
    <path d="M700 520l15-38 15 38z"/><path d="M736 520l20-52 20 52z"/>
  </g>
  <g stroke="#4f6b4d" stroke-width="3.4" stroke-linecap="round">
    <path d="M70 474v-8M112 482v-6M152 468v-8M678 472v-8M715 482v-6M756 468v-8"/>
  </g>
  <g fill="var(--scene-accent, #f2cd6b)">
    <circle cx="228" cy="500" r="5"/><circle cx="250" cy="508" r="4.2"/>
    <circle cx="470" cy="502" r="5"/><circle cx="492" cy="510" r="4.2"/>
  </g>
</svg>
